<svg xmlns="http://www.w3.org/2000/svg" xmlns:xlink="http://www.w3.org/1999/xlink" width="300" height="300" viewBox="0 0 300 300" fill="none">
<g style="mix-blend-mode:">
<g  mask="url(#mask-niFuV5ogIt-xE1-XxWwc_)">
<g  mask="url(#mask-4TqAU_2uU03-XHIEo0LLu)">
<path d="M30.1717 172.396L120.243 256.378C123.981 259.863 128.916 261.804 134.05 261.804C139.184 261.804 144.118 259.863 147.857 256.378L149.153 255.183C139.632 241.195 134.05 224.269 134.05 206.048C134.05 157.66 173.327 118.432 221.777 118.432C235.884 118.432 249.192 121.768 261.006 127.642C261.454 124.407 261.654 121.171 261.654 117.885L261.654 114.998C261.654 80.2002 236.481 50.5302 202.138 44.8053C179.409 41.0219 156.281 48.4394 140.031 64.6681L134.05 70.6418L128.068 64.6681C111.819 48.4394 88.6904 41.0219 65.9607 44.8053C31.6172 50.5302 6.44531 80.2002 6.44531 114.998L6.44531 117.885C6.44531 138.544 15.0187 158.308 30.1717 172.396ZM221.777 277.734C261.404 277.734 293.555 245.625 293.555 206.048C293.555 166.472 261.404 134.363 221.777 134.363C182.15 134.363 150 166.472 150 206.048C150 245.625 182.15 277.734 221.777 277.734Z"   fill="#000000" >
</path>
</g>
<g style="mix-blend-mode:">
<g  mask="url(#mask-4TqAU_2uU03-XHIEo0LLu)">
<path d="M188.672 243.164L258.398 243.164L258.398 171.973L245.508 171.973L245.508 230.273L201.855 230.273L201.855 171.973L188.672 171.973L188.672 243.164Z"   fill="#FFFFFF" >
</path>
</g>
</g>
</g>
</g>
<defs>
<mask id="mask-niFuV5ogIt-xE1-XxWwc_" style="mask-type:alpha" maskUnits="userSpaceOnUse">
<rect x="0" y="0" width="300" height="300"   fill="#000000" >
</rect>
<rect x="0" y="0" width="300" height="300"   fill="#000000" >
</rect>
</mask>
<mask id="mask-4TqAU_2uU03-XHIEo0LLu" style="mask-type:alpha" maskUnits="userSpaceOnUse">
<rect x="6.4453125" y="22.8515625" width="287.109375" height="254.8828125"   fill="#000000" >
</rect>
<rect x="6.4453125" y="22.8515625" width="287.109375" height="254.8828125"   fill="#000000" >
</rect>
</mask>
</defs>
</svg>
