<svg xmlns="http://www.w3.org/2000/svg" xmlns:xlink="http://www.w3.org/1999/xlink" fill="none" version="1.1" width="300" height="300" viewBox="0 0 300 300"><defs><clipPath id="master_svg0_14_52"><rect x="0" y="0" width="300" height="300" rx="0"/></clipPath></defs><g clip-path="url(#master_svg0_14_52)"><g><path d="M120.2429925,256.3779919726562L30.1717015,172.39601197265625C15.0187016,158.30801197265623,6.4453125,138.54402197265625,6.4453125,117.88501697265625L6.4453125,114.99801597265625C6.4453125,80.20021797265625,31.6172025,50.53021617265625,65.96070850000001,44.80531692265625C88.6903995,41.02191547265625,111.8190025,48.43941497265625,128.0679925,64.66811397265624L134.0500025,70.64181497265625L140.0310025,64.66811397265624C156.2810025,48.43941497265625,179.4089925,41.02191547265625,202.1380025,44.80531692265625C236.4810025,50.53021617265625,261.65399249999996,80.20021797265625,261.65399249999996,114.99801597265625L261.65399249999996,117.88501697265625C261.65399249999996,121.17101297265626,261.4540125,124.40701297265625,261.0060125,127.64201397265624C249.1920025,121.76801297265625,235.8840025,118.43201397265625,221.7769925,118.43201397265625C173.3269925,118.43201397265625,134.0500025,157.66002197265624,134.0500025,206.04802197265624C134.0500025,224.26901197265624,139.6320025,241.19502197265626,149.1530025,255.18301197265626L147.8569925,256.3779919726562C144.1179925,259.8630419726562,139.1840025,261.8040119726562,134.0500025,261.8040119726562C128.9160025,261.8040119726562,123.9810025,259.8630419726562,120.2429925,256.3779919726562ZM293.5549925,206.04802197265624C293.5549925,245.62501197265624,261.40399249999996,277.7340119726563,221.7769925,277.7340119726563C182.1499925,277.7340119726563,150.0000025,245.62501197265624,150.0000025,206.04802197265624C150.0000025,166.47201197265625,182.1499925,134.36302197265627,221.7769925,134.36302197265627C261.40399249999996,134.36302197265627,293.5549925,166.47201197265625,293.5549925,206.04802197265624ZM258.3978925,243.16401197265625L188.6718725,243.16401197265625L188.6718725,171.97302197265626L201.8548725,171.97302197265626L201.8548725,230.27301197265626L245.5078725,230.27301197265626L245.5078725,171.97302197265626L258.3978925,171.97302197265626L258.3978925,243.16401197265625Z" fill-rule="evenodd" fill="#000" fill-opacity="1" style="mix-blend-mode:passthrough"/></g></g></svg>